<svg xmlns="http://www.w3.org/2000/svg" viewBox="0 0 189 160" role="img" aria-hidden="true">
  <path d="M 87 91 L 83 98 L 81 105 L 81 131 L 84 138 L 91 144 L 94 145 L 110 145 L 111 147 L 110 151 L 108 153 L 86 153 L 85 154 L 85 159 L 175 159 L 176 158 L 185 121 L 188 113 L 188 103 L 187 102 L 124 102 L 122 104 L 120 114 L 118 118 L 107 118 L 106 117 L 106 108 L 103 106 L 99 109 L 99 120 L 100 123 L 105 126 L 115 126 L 116 129 L 114 133 L 114 136 L 113 137 L 94 137 L 90 134 L 88 130 L 88 105 L 91 98 L 97 92 L 104 89 L 139 89 L 145 91 L 152 96 L 154 95 L 155 90 L 151 86 L 142 82 L 101 82 L 94 85 Z M 129 109 L 180 109 L 181 110 L 181 112 L 180 113 L 180 116 L 179 117 L 179 120 L 178 121 L 178 124 L 177 125 L 177 127 L 176 128 L 176 131 L 175 132 L 175 135 L 174 136 L 174 139 L 173 140 L 173 142 L 172 143 L 172 146 L 171 147 L 171 150 L 169 153 L 118 153 L 117 152 L 117 149 L 118 148 L 118 145 L 119 144 L 119 142 L 120 141 L 120 138 L 121 137 L 121 134 L 122 133 L 122 130 L 123 129 L 123 127 L 124 126 L 124 123 L 125 122 L 125 119 L 126 118 L 126 115 L 127 114 L 127 111 Z M 117 25 L 116 26 L 114 26 L 113 27 L 112 27 L 111 28 L 108 29 L 102 35 L 102 36 L 99 41 L 99 43 L 98 44 L 98 58 L 99 59 L 99 61 L 100 62 L 101 65 L 104 68 L 104 69 L 106 71 L 107 71 L 109 73 L 110 73 L 115 76 L 119 76 L 120 77 L 123 77 L 124 76 L 128 76 L 129 75 L 131 75 L 132 74 L 133 74 L 135 72 L 136 72 L 140 68 L 140 67 L 142 65 L 142 64 L 144 61 L 144 59 L 145 58 L 145 55 L 146 54 L 146 48 L 145 47 L 145 43 L 144 42 L 144 40 L 143 39 L 143 38 L 141 36 L 141 35 L 135 29 L 134 29 L 132 27 L 131 27 L 130 26 L 127 26 L 126 25 Z M 120 32 L 124 32 L 125 33 L 127 33 L 128 34 L 131 35 L 136 40 L 136 41 L 138 44 L 138 47 L 139 48 L 139 54 L 138 55 L 138 57 L 137 58 L 136 61 L 130 67 L 129 67 L 126 69 L 118 69 L 117 68 L 115 68 L 114 67 L 113 67 L 107 61 L 107 60 L 105 57 L 105 53 L 104 52 L 104 50 L 105 49 L 105 45 L 106 44 L 106 43 L 107 42 L 108 39 L 111 36 L 112 36 L 114 34 L 115 34 L 116 33 L 119 33 Z M 76 0 L 74 2 L 59 3 L 43 9 L 32 16 L 18 30 L 6 52 L 3 62 L 2 76 L 0 77 L 0 85 L 2 86 L 2 94 L 5 107 L 16 129 L 35 148 L 50 156 L 60 159 L 78 159 L 79 156 L 77 153 L 63 152 L 50 148 L 38 141 L 26 130 L 17 117 L 12 106 L 9 94 L 8 76 L 9 68 L 12 66 L 24 77 L 22 82 L 23 88 L 33 99 L 32 112 L 33 127 L 35 131 L 42 137 L 48 136 L 49 134 L 48 122 L 66 101 L 70 93 L 70 88 L 67 84 L 56 77 L 52 69 L 47 64 L 36 63 L 35 57 L 30 51 L 42 38 L 50 34 L 62 33 L 65 31 L 67 26 L 65 21 L 58 13 L 59 11 L 70 9 L 74 17 L 79 21 L 89 20 L 97 14 L 101 14 L 112 21 L 117 20 L 116 14 L 101 6 L 87 2 L 77 2 Z M 50 15 L 55 20 L 55 21 L 58 24 L 58 25 L 57 26 L 52 26 L 51 27 L 48 27 L 47 28 L 45 28 L 44 29 L 41 30 L 39 32 L 38 32 L 36 34 L 35 34 L 32 37 L 31 40 L 28 43 L 27 43 L 26 44 L 25 44 L 23 46 L 22 46 L 21 47 L 21 48 L 19 50 L 19 55 L 20 56 L 20 57 L 22 59 L 23 59 L 24 60 L 27 60 L 28 61 L 28 65 L 29 66 L 29 67 L 32 70 L 34 70 L 35 71 L 36 71 L 37 70 L 42 70 L 43 71 L 44 71 L 46 73 L 46 74 L 47 75 L 47 76 L 49 78 L 50 81 L 55 86 L 58 87 L 63 91 L 63 92 L 61 94 L 60 97 L 57 100 L 57 101 L 47 111 L 47 112 L 44 115 L 44 116 L 42 119 L 42 123 L 41 124 L 40 124 L 39 123 L 39 112 L 40 111 L 40 97 L 39 96 L 38 93 L 30 86 L 30 82 L 31 81 L 31 75 L 30 74 L 30 73 L 21 64 L 20 64 L 15 59 L 15 58 L 13 56 L 13 54 L 14 53 L 14 51 L 15 50 L 15 49 L 16 48 L 18 43 L 20 41 L 20 40 L 22 38 L 22 37 L 25 34 L 25 33 L 34 24 L 35 24 L 38 21 L 39 21 L 44 17 L 45 17 L 48 15 Z M 79 10 L 80 9 L 83 9 L 84 10 L 86 10 L 87 11 L 87 12 L 84 14 L 81 14 L 80 13 Z" fill="#332d2d" fill-rule="evenodd" clip-rule="evenodd"/>
</svg>
